HIERARCHY
ROOT Hips
{
	OFFSET	0.00	0.00	0.00
	CHANNELS 6 Xposition Yposition Zposition Zrotation Xrotation Yrotation
	JOINT LeftUpLeg
	{
		OFFSET	 0.126116	-0.065224	 0.014019
		CHANNELS 3 Zrotation Xrotation Yrotation
		JOINT LeftLeg
		{
			OFFSET	 0.000000	 0.569914	 0.000000
			CHANNELS 3 Zrotation Xrotation Yrotation
			JOINT LeftFoot
			{
				OFFSET	 0.000000	 0.544423	 0.000000
				CHANNELS 3 Zrotation Xrotation Yrotation
				JOINT LeftToeBase
				{
					OFFSET	 0.000000	 0.207117	 0.000000
					CHANNELS 3 Zrotation Xrotation Yrotation
					End Site
					{
						OFFSET	 0.000000	 0.207117	 0.000000
					}
				}
			}
		}
	}
	JOINT RightUpLeg
	{
		OFFSET	-0.124023	-0.065224	 0.008373
		CHANNELS 3 Zrotation Xrotation Yrotation
		JOINT RightLeg
		{
			OFFSET	 0.000000	 0.570047	 0.000000
			CHANNELS 3 Zrotation Xrotation Yrotation
			JOINT RightFoot
			{
				OFFSET	 0.000000	 0.544354	 0.000000
				CHANNELS 3 Zrotation Xrotation Yrotation
				JOINT RightToeBase
				{
					OFFSET	 0.000000	 0.207540	 0.000000
					CHANNELS 3 Zrotation Xrotation Yrotation
					End Site
					{
						OFFSET	 0.000000	 0.207540	 0.000000
					}
				}
			}
		}
	}
	JOINT Spine
	{
		OFFSET	 0.000184	 0.117403	 0.007763
		CHANNELS 3 Zrotation Xrotation Yrotation
		JOINT Spine1
		{
			OFFSET	 0.000000	 0.137269	 0.000000
			CHANNELS 3 Zrotation Xrotation Yrotation
			JOINT Spine2
			{
				OFFSET	 0.000000	 0.156879	 0.000000
				CHANNELS 3 Zrotation Xrotation Yrotation
				JOINT LeftShoulder
				{
					OFFSET	 0.080501	 0.160143	 0.002496
					CHANNELS 3 Zrotation Xrotation Yrotation
					JOINT LeftArm
					{
						OFFSET	 0.000000	 0.164363	 0.000000
						CHANNELS 3 Zrotation Xrotation Yrotation
						JOINT LeftForeArm
						{
							OFFSET	 0.000000	 0.364576	 0.000000
							CHANNELS 3 Zrotation Xrotation Yrotation
							JOINT LeftHand
							{
								OFFSET	 0.000000	 0.360812	 0.000000
								CHANNELS 3 Zrotation Xrotation Yrotation
								JOINT LeftHandIndex1
								{
									OFFSET	 0.000000	 0.086006	 0.000000
									CHANNELS 3 Zrotation Xrotation Yrotation
									JOINT LeftHandIndex2
									{
										OFFSET	 0.000000	 0.047237	 0.000000
										CHANNELS 3 Zrotation Xrotation Yrotation
										JOINT LeftHandIndex3
										{
											OFFSET	-0.004284	 0.038165	 0.000551
											CHANNELS 3 Zrotation Xrotation Yrotation
											End Site
											{
												OFFSET	-0.004284	 0.038165	 0.000551
											}
										}
									}
								}
							}
						}
					}
				}
				JOINT Neck
				{
					OFFSET	 0.000000	 0.176489	 0.000000
					CHANNELS 3 Zrotation Xrotation Yrotation
					JOINT Head
					{
						OFFSET	 0.000000	 0.077941	 0.001747
						CHANNELS 3 Zrotation Xrotation Yrotation
						End Site
						{
							OFFSET	 0.000000	 0.077941	 0.001747
						}
					}
				}
				JOINT RightShoulder
				{
					OFFSET	-0.080363	 0.159706	-0.000306
					CHANNELS 3 Zrotation Xrotation Yrotation
					JOINT RightArm
					{
						OFFSET	 0.000000	 0.164196	 0.000000
						CHANNELS 3 Zrotation Xrotation Yrotation
						JOINT RightForeArm
						{
							OFFSET	 0.000000	 0.365611	 0.000000
							CHANNELS 3 Zrotation Xrotation Yrotation
							JOINT RightHand
							{
								OFFSET	 0.000000	 0.360648	 0.000000
								CHANNELS 3 Zrotation Xrotation Yrotation
								JOINT RightHandIndex1
								{
									OFFSET	 0.000000	 0.069977	 0.000000
									CHANNELS 3 Zrotation Xrotation Yrotation
									JOINT RightHandIndex2
									{
										OFFSET	 0.000000	 0.052305	 0.000000
										CHANNELS 3 Zrotation Xrotation Yrotation
										JOINT RightHandIndex3
										{
											OFFSET	 0.009002	 0.042196	 0.000782
											CHANNELS 3 Zrotation Xrotation Yrotation
											End Site
											{
												OFFSET	 0.009002	 0.042196	 0.000782
											}
										}
									}
								}
							}
						}
					}
				}
			}
		}
	}
}
MOTION
Frames:    13
Frame Time: 0.03333334
-0.000819	 1.269507	-0.008729	-0.018816	 3.209292	 178.774600	-178.399100	 3.171734	-14.406520	 3.069156	-15.173650	 2.856678	-5.242939	 69.544080	 6.775336	 1.331492	 28.938720	-2.729976	 178.025700	 4.205224	 17.872250	-5.088941	-16.311290	-6.481064	 2.442102	 70.437130	-1.666482	-1.305371	 28.580710	 2.601925	-1.225642	 4.171735	 8.673734	-1.344862	 1.038644	 3.611891	-1.173798	 1.946433	-15.029340	-113.447200	 5.120598	 92.998860	 13.830590	 55.841460	 32.066750	 5.066113	-0.260275	-0.027871	 9.136890	-6.919927	 15.626300	-6.580301	 5.266122	 0.000000	 0.000000	 0.000000	 0.000000	 0.000000	 0.000000	 0.000000	 3.839745	-0.666623	-0.253183	 3.251066	 0.783279	-2.165563	 114.204000	-4.416687	-88.490940	-65.954640	-1.909887	 45.826020	-90.425510	-2.251837	-2.255649	-1.318750	-13.610150	-58.910050	-0.359779	 10.582380	 0.744568	 11.977790	 9.317251	-2.096053	-8.359141	 3.150306	 0.104227
-0.000425	 1.269521	-0.009189	 0.137862	 3.163428	 178.632300	-178.193600	 3.263886	-14.554340	 3.114885	-15.388850	 2.807584	-5.510389	 69.676160	 7.000849	 1.331492	 28.938720	-2.729976	 178.207800	 4.151703	 17.789950	-5.033085	-16.142050	-6.566942	 2.188255	 70.411320	-1.370335	-1.305412	 28.580950	 2.591362	-1.124896	 4.310673	 8.594425	-1.290655	 0.145235	 3.664714	-1.139456	 2.988300	-14.870810	-113.447500	 5.098217	 92.993960	 14.360160	 55.440940	 31.756040	 5.161027	-0.260224	 0.120924	 8.171098	-5.972136	 15.101930	-6.580301	 5.266122	 0.000000	 0.000000	 0.000000	 0.000000	 0.000000	 0.000000	 0.000000	 3.876181	-0.750244	-0.264500	 3.388782	 0.957909	-2.228909	 114.197500	-4.372294	-88.523090	-62.853760	-5.136146	 44.089590	-86.347850	-2.243558	-2.243783	-5.148485	-7.166913	-54.517570	-0.359772	 10.582160	 0.744568	 11.977790	 9.317030	-2.096008	-8.359138	 3.150188	 0.104238
 0.000296	 1.269538	-0.010001	 0.341556	 3.118247	 178.448700	-177.918500	 3.340494	-14.722870	 3.171347	-15.653990	 2.744454	-5.827957	 69.858800	 7.243439	 1.331492	 28.938720	-2.729976	 178.449500	 4.048251	 17.696370	-4.958356	-15.915220	-6.679292	 1.882455	 70.389220	-1.017959	-1.305465	 28.581250	 2.577700	-0.997734	 4.459958	 8.457263	-1.261977	-0.899359	 3.723803	-1.097445	 4.081109	-14.595410	-113.448000	 5.069269	 92.987600	 14.819810	 54.852880	 31.533260	 5.295810	-0.260795	 0.313315	 7.175758	-4.812374	 14.300580	-6.580301	 5.266122	 0.000000	 0.000000	 0.000000	 0.000000	 0.000000	 0.000000	 0.000000	 3.923285	-0.858411	-0.279057	 3.567587	 1.153698	-2.288117	 114.189200	-4.314833	-88.564610	-59.362640	-9.867527	 42.032090	-77.494760	-2.189848	-2.091308	-15.788670	 0.423175	-48.480280	-0.359763	 10.581870	 0.744568	 11.977790	 9.316744	-2.095951	-8.359132	 3.150037	 0.104253
 0.001080	 1.269564	-0.010923	 0.544328	 3.075327	 178.270900	-177.640500	 3.396865	-14.892270	 3.224584	-15.903260	 2.684604	-6.165540	 70.040900	 7.503610	 1.331492	 28.938720	-2.729976	 178.692100	 3.928674	 17.602330	-4.880939	-15.679600	-6.788237	 1.571244	 70.367860	-0.662929	-1.305516	 28.581540	 2.564548	-0.868478	 4.609678	 8.229236	-1.248182	-1.974572	 3.741325	-1.057889	 5.172266	-14.200200	-113.448400	 5.041394	 92.981490	 15.171470	 54.237640	 31.383610	 5.426730	-0.261306	 0.498319	 6.184566	-3.688610	 13.259120	-6.580301	 5.266122	 0.000000	 0.000000	 0.000000	 0.000000	 0.000000	 0.000000	 0.000000	 3.968603	-0.962548	-0.292988	 3.740469	 1.355721	-2.313956	 114.181300	-4.259539	-88.604590	-57.773020	-15.161480	 39.382020	-65.593660	-2.037348	-1.832631	-30.378510	 5.963181	-42.469680	-0.359754	 10.581590	 0.744568	 11.977790	 9.316468	-2.095895	-8.359125	 3.149891	 0.104266
 0.001516	 1.269598	-0.011477	 0.675555	 3.035264	 178.166200	-177.464900	 3.446822	-14.990660	 3.257174	-16.055580	 2.650434	-6.362180	 70.150760	 7.654187	 1.331492	 28.938720	-2.729976	 178.845800	 3.859447	 17.547930	-4.827365	-15.516230	-6.850872	 1.386184	 70.341650	-0.453416	-1.305545	 28.581710	 2.556847	-0.773253	 4.760026	 7.892872	-1.237237	-2.874216	 3.666794	-1.034891	 6.149499	-13.698750	-113.448700	 5.025101	 92.977930	 15.525120	 53.834760	 31.160800	 5.495370	-0.261269	 0.606537	 5.200597	-2.945229	 12.054970	-6.580301	 5.266122	 0.000000	 0.000000	 0.000000	 0.000000	 0.000000	 0.000000	 0.000000	 3.995132	-1.023539	-0.301108	 3.842305	 1.537946	-2.269239	 114.176700	-4.227155	-88.627990	-57.988390	-18.534690	 37.357110	-57.540130	-1.884093	-1.662298	-40.288130	 8.253928	-38.461880	-0.359749	 10.581430	 0.744568	 11.977790	 9.316308	-2.095863	-8.359123	 3.149806	 0.104275
 0.001688	 1.269640	-0.011703	 0.752626	 2.995016	 178.116600	-177.366800	 3.500161	-15.035680	 3.275017	-16.138920	 2.635427	-6.449580	 70.205570	 7.719709	 1.331492	 28.938720	-2.729976	 178.932600	 3.835553	 17.523500	-4.792625	-15.410090	-6.877631	 1.299134	 70.310360	-0.357269	-1.305559	 28.581790	 2.553273	-0.704073	 4.911434	 7.450465	-1.226068	-3.627878	 3.513338	-1.031453	 7.035802	-13.067890	-113.448800	 5.017507	 92.976260	 15.969450	 53.582590	 30.813590	 5.516437	-0.260645	 0.656635	 4.162458	-2.469877	 10.615980	-6.580301	 5.266122	 0.000000	 0.000000	 0.000000	 0.000000	 0.000000	 0.000000	 0.000000	 4.007440	-1.051842	-0.304866	 3.889801	 1.709230	-2.158866	 114.174500	-4.212121	-88.638850	-58.332080	-20.126670	 36.364010	-53.824410	-1.800432	-1.591681	-45.394370	 8.943264	-35.700180	-0.359747	 10.581350	 0.744568	 11.977790	 9.316232	-2.095847	-8.359121	 3.149767	 0.104278
 0.001660	 1.269688	-0.011655	 0.785642	 2.954270	 178.112700	-177.330900	 3.557978	-15.036320	 3.281164	-16.167550	 2.636366	-6.447992	 70.216110	 7.715129	 1.331492	 28.938720	-2.729976	 178.965500	 3.850648	 17.524050	-4.773657	-15.352170	-6.874053	 1.293061	 70.275190	-0.355675	-1.305560	 28.581790	 2.553125	-0.656110	 5.058759	 6.904910	-1.217553	-4.245170	 3.287884	-1.047964	 7.828721	-12.294610	-113.448800	 5.017194	 92.976180	 16.529580	 53.437930	 30.331880	 5.503059	-0.259878	 0.658634	 3.053149	-2.196669	 8.905746	-6.580301	 5.266122	 0.000000	 0.000000	 0.000000	 0.000000	 0.000000	 0.000000	 0.000000	 4.007949	-1.053012	-0.305022	 3.891667	 1.871238	-1.984968	 114.174400	-4.211493	-88.639290	-58.189990	-20.182050	 36.484620	-54.067890	-1.805990	-1.601426	-46.252480	 8.676915	-33.789440	-0.359746	 10.581350	 0.744568	 11.977790	 9.316229	-2.095847	-8.359121	 3.149765	 0.104278
 0.001469	 1.269739	-0.011372	 0.780046	 2.911940	 178.147800	-177.349100	 3.620751	-14.999240	 3.277249	-16.149320	 2.650683	-6.371297	 70.188800	 7.651425	 1.331492	 28.938720	-2.729976	 178.951600	 3.902079	 17.545690	-4.769259	-15.338740	-6.844932	 1.355085	 70.238410	-0.433549	-1.305549	 28.581730	 2.555897	-0.627644	 5.199721	 6.246134	-1.214023	-4.740644	 2.986371	-1.085105	 8.530786	-11.358420	-113.448700	 5.023075	 92.977480	 17.189010	 53.385890	 29.739930	 5.458867	-0.258885	 0.619628	 1.862733	-2.102916	 6.865330	-6.580301	 5.266122	 0.000000	 0.000000	 0.000000	 0.000000	 0.000000	 0.000000	 0.000000	 3.998401	-1.031054	-0.302107	 3.854110	 2.025226	-1.746221	 114.176100	-4.223168	-88.630870	-57.631030	-18.940610	 37.515370	-57.641170	-1.885816	-1.678921	-43.443020	 7.709124	-32.489140	-0.359748	 10.581410	 0.744568	 11.977790	 9.316287	-2.095859	-8.359122	 3.149796	 0.104276
 0.001126	 1.269792	-0.010884	 0.737436	 2.868475	 178.217200	-177.418600	 3.685696	-14.929140	 3.263517	-16.085250	 2.676736	-6.226804	 70.125440	 7.534886	 1.331492	 28.938720	-2.729976	 178.893000	 3.987342	 17.585850	-4.779152	-15.368930	-6.794008	 1.476928	 70.202610	-0.580540	-1.305529	 28.581610	 2.561243	-0.620162	 5.332871	 5.459484	-1.216379	-5.124193	 2.598902	-1.144432	 9.138521	-10.239620	-113.448600	 5.034400	 92.979960	 17.896450	 53.433060	 29.085920	 5.387203	-0.257683	 0.544450	 0.591232	-2.197131	 4.434422	-6.580301	 5.266122	 0.000000	 0.000000	 0.000000	 0.000000	 0.000000	 0.000000	 0.000000	 3.979992	-0.988727	-0.296477	 3.781293	 2.170070	-1.440046	 114.179300	-4.245626	-88.614650	-57.093510	-16.611150	 39.096670	-63.885790	-2.007575	-1.818201	-37.401720	 6.066467	-31.679730	-0.359752	 10.581520	 0.744568	 11.977790	 9.316400	-2.095881	-8.359125	 3.149855	 0.104270
 0.000640	 1.269846	-0.010224	 0.657864	 2.823255	 178.319200	-177.538800	 3.750705	-14.828660	 3.239929	-15.975040	 2.713663	-6.022097	 70.027280	 7.372722	 1.331492	 28.938720	-2.729976	 178.790100	 4.105849	 17.642950	-4.803855	-15.444450	-6.723697	 1.651103	 70.171360	-0.787184	-1.305498	 28.581440	 2.568963	-0.635284	 5.454671	 4.524565	-1.227359	-5.402923	 2.111705	-1.226928	 9.645908	-8.911022	-113.448300	 5.050757	 92.983540	 18.597200	 53.590810	 28.418610	 5.289003	-0.256301	 0.435814	-0.765389	-2.493515	 1.536630	-6.580301	 5.266122	 0.000000	 0.000000	 0.000000	 0.000000	 0.000000	 0.000000	 0.000000	 3.953396	-0.927596	-0.288322	 3.675434	 2.303069	-1.060544	 114.184000	-4.278088	-88.591180	-57.178010	-13.435590	 40.813010	-72.029210	-2.130313	-2.006633	-28.550680	 3.558453	-31.304860	-0.359757	 10.581680	 0.744568	 11.977790	 9.316560	-2.095914	-8.359127	 3.149940	 0.104262
 0.000071	 1.269894	-0.009480	 0.549812	 2.778582	 178.443900	-177.696900	 3.808873	-14.705720	 3.208556	-15.828320	 2.758572	-5.774748	 69.905100	 7.176757	 1.331492	 28.938720	-2.729976	 178.653800	 4.246260	 17.712400	-4.840893	-15.557490	-6.640522	 1.863616	 70.148280	-1.037262	-1.305462	 28.581230	 2.578407	-0.669789	 5.555838	 3.484620	-1.252141	-5.576521	 1.546724	-1.324810	 10.023020	-7.433056	-113.448000	 5.070766	 92.987920	 19.213350	 53.840790	 27.808980	 5.169859	-0.254630	 0.302822	-2.132420	-2.958884	-1.709447	-6.580301	 5.266122	 0.000000	 0.000000	 0.000000	 0.000000	 0.000000	 0.000000	 0.000000	 3.920850	-0.852818	-0.278307	 3.545181	 2.412761	-0.626418	 114.189700	-4.317806	-88.562460	-58.363290	-9.936365	 42.226440	-80.530430	-2.212842	-2.198541	-18.188990	 0.001104	-31.281010	-0.359764	 10.581880	 0.744568	 11.977790	 9.316759	-2.095954	-8.359132	 3.150045	 0.104252
-0.000542	 1.269938	-0.008685	 0.416036	 2.732334	 178.596200	-177.888000	 3.860394	-14.554650	 3.170040	-15.647860	 2.814099	-5.484876	 69.763260	 6.943477	 1.331492	 28.938720	-2.729976	 178.487500	 4.405000	 17.797440	-4.888709	-15.703270	-6.541114	 2.118703	 70.132070	-1.338368	-1.305417	 28.580980	 2.589933	-0.718187	 5.638498	 2.288849	-1.302402	-5.670884	 0.878658	-1.436110	 10.284080	-5.725742	-113.447500	 5.095188	 92.993310	 19.760520	 54.153220	 27.239760	 5.028564	-0.252687	 0.140379	-3.580954	-3.562369	-5.479358	-6.580301	 5.266122	 0.000000	 0.000000	 0.000000	 0.000000	 0.000000	 0.000000	 0.000000	 3.881109	-0.761555	-0.266026	 3.385578	 2.497610	-0.114384	 114.196700	-4.366275	-88.527410	-60.852290	-6.242028	 43.344890	-88.508130	-2.246902	-2.348715	-7.072563	-5.150542	-31.308900	-0.359771	 10.582130	 0.744568	 11.977790	 9.317000	-2.096002	-8.359138	 3.150172	 0.104240
-0.001051	 1.269973	-0.007983	 0.276229	 2.684803	 178.769000	-178.082200	 3.902909	-14.379760	 3.130443	-15.461960	 2.879604	-5.181278	 69.627990	 6.688106	 1.331492	 28.938720	-2.729976	 178.316200	 4.561669	 17.895890	-4.940440	-15.860730	-6.428911	 2.400653	 70.123100	-1.676992	-1.305366	 28.580680	 2.603078	-0.764047	 5.690389	 1.002674	-1.393698	-5.702083	 0.150511	-1.543762	 10.410770	-3.863785	-113.447100	 5.123047	 92.999400	 20.233320	 54.427440	 26.712290	 4.878762	-0.251254	-0.044919	-5.054246	-4.174390	-9.576680	-6.580301	 5.266122	 0.000000	 0.000000	 0.000000	 0.000000	 0.000000	 0.000000	 0.000000	 3.835764	-0.657490	-0.251944	 3.203461	 2.544058	 0.454511	 114.204700	-4.421534	-88.487450	-64.045200	-2.588386	 44.667340	-94.178750	-2.246356	-2.386892	 2.460918	-11.640280	-30.689500	-0.359780	 10.582400	 0.744568	 11.977790	 9.317275	-2.096058	-8.359142	 3.150318	 0.104226
